<svg xmlns="http://www.w3.org/2000/svg" width="100" height="100" viewBox="0 0 100 100">
  <g id="Group_110" data-name="Group 110" transform="translate(-713 -247)">
    <g id="Rectangle_169" data-name="Rectangle 169" transform="translate(713 247)" fill="#d35220" stroke="#707070" stroke-width="1">
      <rect width="100" height="100" rx="8" stroke="none"/>
      <rect x="0.5" y="0.5" width="99" height="99" rx="7.5" fill="none"/>
    </g>
    <path id="ic_account_circle_24px" d="M37.938,2A35.938,35.938,0,1,0,73.876,37.938,35.951,35.951,0,0,0,37.938,2Zm0,10.781A10.781,10.781,0,1,1,27.157,23.563,10.767,10.767,0,0,1,37.938,12.781Zm0,51.032A25.877,25.877,0,0,1,16.375,52.241c.108-7.152,14.375-11.069,21.563-11.069,7.152,0,21.455,3.917,21.563,11.069A25.877,25.877,0,0,1,37.938,63.813Z" transform="translate(725.062 259.062)" fill="#fff"/>
  </g>
</svg>
