<svg xmlns="http://www.w3.org/2000/svg" width="42.756" height="42.752" viewBox="0 0 42.756 42.752">
  <path id="paper-plane" d="M36.78.565,2.044,20.6A4.008,4.008,0,0,0,2.52,27.77l9.544,3.95v7.048A4.013,4.013,0,0,0,19.3,41.155l3.657-4.935L32.3,40.078a4.017,4.017,0,0,0,5.494-3.1l4.96-32.332A4.016,4.016,0,0,0,36.78.565Zm-20.708,38.2V33.373l3.056,1.261Zm17.752-2.4-12.842-5.3L32.689,14.176a1.338,1.338,0,0,0-1.979-1.77L13.049,27.8l-9-3.724L38.784,4.031Z" transform="translate(-0.043 -0.025)" fill="#d35220"/>
</svg>
