<svg xmlns="http://www.w3.org/2000/svg" width="47.622" height="40.677" viewBox="0 0 47.622 40.677">
  <path id="ic_directions_bike_24px" d="M30.756,9.437a3.968,3.968,0,1,0-3.968-3.968A3.98,3.98,0,0,0,30.756,9.437ZM9.921,22.335a9.921,9.921,0,0,0,0,19.842,9.921,9.921,0,0,0,0-19.842Zm0,16.866a6.945,6.945,0,1,1,0-13.89,6.945,6.945,0,1,1,0,13.89ZM21.43,19.358,26.192,14.6l1.587,1.587A13.9,13.9,0,0,0,37.9,20.35V16.382a9.858,9.858,0,0,1-7.143-2.976l-3.77-3.77a4.865,4.865,0,0,0-3.175-1.191,3.33,3.33,0,0,0-2.778,1.191l-5.556,5.556a3.918,3.918,0,0,0-1.191,2.778,3.33,3.33,0,0,0,1.191,2.778l6.35,5.556v9.921H25.8v-12.3ZM37.7,22.335a9.921,9.921,0,1,0,9.921,9.921A9.825,9.825,0,0,0,37.7,22.335Zm0,16.866a6.945,6.945,0,1,1,6.945-6.945A7.03,7.03,0,0,1,37.7,39.2Z" transform="translate(0 -1.5)" fill="#d35220"/>
</svg>
