<svg xmlns="http://www.w3.org/2000/svg" width="32.513" height="43.988" viewBox="0 0 32.513 43.988">
  <path id="ic_rowing_24px" d="M12.606,26.819,4,35.426l2.869,2.869L13.563,31.6h3.825ZM25.038,1a3.825,3.825,0,1,0,3.825,3.825A3.836,3.836,0,0,0,25.038,1ZM36.513,39.27l-5.738,5.718-5.718-5.757v-2.85L11.478,22.822a10.835,10.835,0,0,1-1.74.134V18.825a12.836,12.836,0,0,0,8.932-3.9l2.678-2.964A4.1,4.1,0,0,1,22.666,11a4.256,4.256,0,0,1,1.836-.44h.057a4.338,4.338,0,0,1,4.3,4.322v11a5.735,5.735,0,0,1-1.76,4.131l-6.847-6.847V18.825a18.548,18.548,0,0,1-4.38,2.658l12.03,12.03h2.869Z" transform="translate(-4 -1)" fill="#d35220"/>
</svg>
