<svg xmlns="http://www.w3.org/2000/svg" width="40.729" height="40.729" viewBox="0 0 40.729 40.729">
  <path id="ic_language_24px" d="M22.344,2A20.365,20.365,0,1,0,42.729,22.365,20.355,20.355,0,0,0,22.344,2ZM36.457,14.219H30.449a31.869,31.869,0,0,0-2.81-7.25A16.352,16.352,0,0,1,36.457,14.219ZM22.365,6.154a28.687,28.687,0,0,1,3.89,8.064H18.475A28.687,28.687,0,0,1,22.365,6.154ZM6.6,26.438a15.93,15.93,0,0,1,0-8.146h6.883a33.633,33.633,0,0,0-.285,4.073,33.633,33.633,0,0,0,.285,4.073Zm1.67,4.073H14.28a31.869,31.869,0,0,0,2.81,7.25,16.265,16.265,0,0,1-8.818-7.25ZM14.28,14.219H8.272a16.265,16.265,0,0,1,8.818-7.25,31.869,31.869,0,0,0-2.81,7.25Zm8.085,24.356a28.687,28.687,0,0,1-3.89-8.064h7.779A28.687,28.687,0,0,1,22.365,38.575ZM27.13,26.438H17.6a29.962,29.962,0,0,1-.326-4.073,29.7,29.7,0,0,1,.326-4.073H27.13a29.7,29.7,0,0,1,.326,4.073A29.962,29.962,0,0,1,27.13,26.438Zm.509,11.323a31.869,31.869,0,0,0,2.81-7.25h6.008A16.352,16.352,0,0,1,27.639,37.76Zm3.6-11.323a33.634,33.634,0,0,0,.285-4.073,33.634,33.634,0,0,0-.285-4.073h6.883a15.93,15.93,0,0,1,0,8.146Z" transform="translate(-2 -2)" fill="#d35220"/>
</svg>
